<svg id="Layer_1" data-name="Layer 1" xmlns="http://www.w3.org/2000/svg" viewBox="0 0 86.79 88.73"><defs><style>.cls-1{fill:#ed1c24;stroke:#fff;stroke-width:2px;}</style></defs><title>Artboard 3</title><path class="cls-1" d="M76.28,75.41c1.06-3,.34-4.77-2.45-5.93-2.89-.87-4.2.22-5.64,3-.12.22-.58.82-.58.82-1.3,2.07-3.18,3.51-5.57,2.86C56.52,74.68,57,65.63,48.32,63.26l-1.76,7.88c5.52,1.51,5.19,10.6,13.72,12.94,7.36,2,12.77-.92,16-8.45Z"/><path class="cls-1" d="M48.65,66.37v1.57c0,3.41-1.29,5-4.31,5.12-3-.18-4.29-1.73-4.28-5.14V66.34L40.18,23V21.38c0-3.41,1.3-5,4.31-5.12,3,.18,4.29,1.74,4.28,5.15V23Z"/><path class="cls-1" d="M20.75,53.54l-1.28.08c-2.78.18-4.12-1-4.46-4,0-3,1.13-4.38,3.9-4.56L20.19,45l35.26-2.29,1.28-.09c2.78-.18,4.12,1,4.46,4,.05,3-1.13,4.38-3.9,4.56L56,51.24Z"/><path class="cls-1" d="M15.62,32.73l-2,.14C9.15,33.16,7.05,32,6.64,29c0-3,2-4.43,6.37-4.72l2.05-.13,56.27-3.67,2-.13c4.42-.29,6.52.86,6.94,3.86,0,3-2,4.43-6.38,4.72l-2.05.13Z"/><path class="cls-1" d="M31.46,45.37l-1.39.09c-3,.2-4.44-1-4.79-4,0-3,1.24-4.39,4.23-4.58l1.39-.09L69,34.32l1.39-.09c3-.2,4.44,1,4.78,4,0,3-1.23,4.39-4.22,4.58l-1.39.09Z"/><path class="cls-1" d="M16.24,41.29l-2,.13C10,41.7,8,40.54,7.6,37.55c0-3,1.87-4.43,6.12-4.71l2-.12L69.76,29.2l2-.13C76,28.79,78,30,78.4,32.94c0,3-1.87,4.43-6.12,4.7l-2,.13Z"/><path class="cls-1" d="M16.6,49.86,15.21,50c-3,.19-4.44-1-4.78-4,0-3,1.23-4.39,4.23-4.58L16,41.28,54.15,38.8l1.38-.09c3-.2,4.44,1,4.79,4,0,3-1.24,4.39-4.23,4.58l-1.39.09Z"/><path class="cls-1" d="M52.05,58.94l1.3,1.36c2.8,3,3.14,5.19,1.09,7.41-2.32,1.92-4.53,1.46-7.33-1.5l-1.3-1.36L10.18,27.23,8.89,25.87c-2.8-3-3.15-5.19-1.1-7.41,2.33-1.92,4.54-1.46,7.34,1.5l1.29,1.36Z"/><path class="cls-1" d="M58.32,53.07l1.36,1.44c2.94,3.1,3.35,5.4,1.31,7.63-2.34,1.91-4.61,1.38-7.55-1.72L52.08,59,14.65,19.47,13.29,18c-2.95-3.1-3.35-5.4-1.31-7.63,2.33-1.92,4.6-1.38,7.55,1.72l1.36,1.44Z"/><path class="cls-1" d="M63.61,46.15l1.24,1.31c2.69,2.84,3,5,.93,7.23-2.32,1.93-4.48,1.52-7.16-1.32l-1.25-1.31L23.17,16l-1.24-1.32c-2.69-2.83-3-5-.93-7.22,2.32-1.93,4.48-1.52,7.17,1.31l1.24,1.32Z"/><path class="cls-1" d="M69.7,40l1.09,1.15c2.34,2.47,2.48,4.49.41,6.68-2.31,2-4.31,1.7-6.65-.77l-1.09-1.15L33.63,14.39l-1.09-1.14c-2.34-2.48-2.48-4.49-.41-6.69,2.31-1.94,4.31-1.7,6.65.77l1.09,1.15Z"/><path class="cls-1" d="M30.16,55.14l-1,1.5c-2.25,3.26-4.34,4-6.93,2.47-2.36-1.88-2.39-4.09-.14-7.35l1-1.51L51.76,8.77l1-1.5c2.25-3.26,4.33-4,6.93-2.47,2.36,1.88,2.39,4.09.14,7.35l-1,1.51Z"/><path class="cls-1" d="M37.18,60.07l-1.1,1.59C33.71,65.1,31.57,65.94,29,64.4c-2.36-1.88-2.33-4.18,0-7.62l1.1-1.59L60.37,11.41l1.1-1.59C63.85,6.38,66,5.54,68.58,7.08c2.36,1.89,2.34,4.18,0,7.63l-1.1,1.59Z"/><path class="cls-1" d="M44.34,64.81l-1.11,1.6c-2.39,3.46-4.54,4.3-7.13,2.76-2.36-1.88-2.33-4.19.06-7.65l1.1-1.59,30.41-44,1.11-1.6c2.39-3.46,4.53-4.31,7.13-2.77,2.36,1.89,2.33,4.19-.06,7.65l-1.11,1.6Z"/></svg>