<svg id="Layer_1" data-name="Layer 1" xmlns="http://www.w3.org/2000/svg" viewBox="0 0 277.69 132.86"><defs><style>.cls-1{fill:#231f20;}.cls-2{fill:#ed1c24;stroke:#fff;stroke-width:2px;}</style></defs><title>marca curva</title><path class="cls-1" d="M4.37,81.7H9.79a2.52,2.52,0,0,0,2.77-2.77V3.56H24L63.61,59.89C66.88,64.68,71,72,71,72h.26a119.7,119.7,0,0,1-.89-12.1V11.62c0-5.67,2.4-8.06,8.2-8.06h12.6V14.39H85.79A2.47,2.47,0,0,0,83,17.17V92.54H71.67L32,36.2c-3.28-4.79-7.31-12.1-7.31-12.1h-.25s.76,7.18.76,12.1V84.47c0,5.67-2.4,8.07-8.07,8.07H4.37Z"/><path class="cls-1" d="M209.68,27.25c17.89,0,27.47,13.36,27.47,29.87,0,1.64-.38,5-.38,5h-46.5c.75,13.61,10.58,21.3,21.93,21.3,11,0,18.65-7.43,18.65-7.43l5.29,8.69a37.3,37.3,0,0,1-24.57,9.33c-20.17,0-33.91-14.49-33.91-33.4C177.66,40.36,191.53,27.25,209.68,27.25Zm14.87,26c-.38-10.58-7.06-16.26-15-16.26-9.33,0-16.89,5.68-18.78,16.26Z"/><path class="cls-1" d="M253.15,16.79A2.47,2.47,0,0,0,250.38,14h-5.17V3.56h12.1c5.67,0,8.07,2.39,8.07,8.06V79.3a2.47,2.47,0,0,0,2.77,2.78h5.17V92.54h-12.1c-5.67,0-8.07-2.4-8.07-8.07Z"/><path class="cls-2" d="M165.58,97.25c1.06-3,.34-4.77-2.45-5.93-2.89-.86-4.2.23-5.64,3-.12.22-.58.82-.58.82-1.3,2.07-3.18,3.51-5.57,2.86-5.52-1.52-5.06-10.57-13.72-12.94L135.86,93c5.52,1.52,5.19,10.6,13.72,12.94,7.36,2,12.77-.91,15.95-8.45Z"/><path class="cls-2" d="M138,88.21v1.57c0,3.41-1.3,5-4.32,5.12-3-.17-4.29-1.73-4.28-5.14V88.18l.13-43.38V43.22c0-3.41,1.3-5,4.31-5.12,3,.18,4.29,1.74,4.28,5.15v1.57Z"/><path class="cls-2" d="M110.05,75.38l-1.28.09c-2.78.18-4.12-1-4.46-4,0-3,1.13-4.38,3.9-4.56l1.28-.08,35.26-2.3,1.28-.08c2.78-.18,4.12,1,4.46,4,0,3-1.13,4.38-3.9,4.56l-1.28.09Z"/><path class="cls-2" d="M104.92,54.58l-2,.13c-4.42.29-6.52-.86-6.93-3.86,0-3,2-4.43,6.37-4.72l2-.13,56.27-3.66,2-.14c4.42-.28,6.52.87,6.94,3.86,0,3-2,4.43-6.38,4.72l-2,.13Z"/><path class="cls-2" d="M120.76,67.22l-1.39.09c-3,.19-4.44-1-4.79-4,0-3,1.24-4.39,4.23-4.58l1.39-.09,38.1-2.48,1.39-.09c3-.2,4.44,1,4.79,4,0,3-1.24,4.39-4.23,4.59l-1.39.09Z"/><path class="cls-2" d="M105.54,63.13l-2,.13c-4.25.28-6.27-.88-6.68-3.87,0-3,1.87-4.43,6.12-4.7l2-.13L159.06,51l2-.13c4.25-.28,6.27.88,6.68,3.87,0,3-1.87,4.43-6.12,4.71l-2,.12Z"/><path class="cls-2" d="M105.9,71.7l-1.39.09c-3,.19-4.44-1-4.78-4,0-3,1.23-4.38,4.23-4.58l1.38-.09,38.11-2.48,1.38-.09c3-.2,4.44,1,4.79,4,0,3-1.24,4.39-4.23,4.59l-1.39.09Z"/><path class="cls-2" d="M141.35,80.78l1.3,1.37c2.8,2.95,3.14,5.18,1.09,7.4-2.32,1.93-4.53,1.46-7.33-1.49l-1.3-1.37L99.48,49.08l-1.29-1.37c-2.8-3-3.15-5.19-1.1-7.41,2.33-1.92,4.54-1.46,7.34,1.5l1.29,1.37Z"/><path class="cls-2" d="M147.62,74.91,149,76.35c2.94,3.1,3.35,5.4,1.31,7.63-2.34,1.92-4.61,1.39-7.55-1.72l-1.36-1.44L104,41.31l-1.36-1.44c-3-3.1-3.35-5.4-1.31-7.63,2.33-1.91,4.6-1.38,7.55,1.72l1.36,1.44Z"/><path class="cls-2" d="M152.91,68l1.25,1.31c2.68,2.84,3,5,.92,7.23-2.32,1.93-4.48,1.52-7.16-1.32l-1.25-1.31-34.2-36.1-1.24-1.31c-2.69-2.84-3-5-.93-7.23,2.32-1.93,4.48-1.52,7.17,1.32l1.24,1.31Z"/><path class="cls-2" d="M159,61.82,160.09,63c2.34,2.48,2.48,4.49.41,6.68-2.31,2-4.31,1.71-6.65-.77l-1.09-1.14-29.83-31.5-1.09-1.14c-2.34-2.48-2.48-4.49-.41-6.68,2.31-1.95,4.31-1.71,6.65.77l1.09,1.14Z"/><path class="cls-2" d="M119.46,77l-1,1.51c-2.25,3.26-4.34,4-6.93,2.46-2.36-1.87-2.39-4.09-.14-7.35l1-1.51,28.67-41.47,1-1.51c2.25-3.26,4.34-4,6.93-2.47,2.36,1.88,2.39,4.09.14,7.35l-1,1.51Z"/><path class="cls-2" d="M126.48,81.91l-1.09,1.6c-2.38,3.44-4.52,4.27-7.12,2.73-2.36-1.88-2.33-4.18,0-7.62l1.1-1.59,30.26-43.78,1.1-1.59c2.38-3.44,4.52-4.28,7.11-2.73,2.36,1.88,2.34,4.18,0,7.62l-1.1,1.59Z"/><path class="cls-2" d="M133.64,86.65l-1.11,1.6c-2.39,3.46-4.54,4.31-7.13,2.77-2.36-1.89-2.33-4.19.06-7.65l1.1-1.6,30.41-44,1.11-1.6c2.39-3.46,4.54-4.3,7.13-2.76,2.36,1.88,2.33,4.19-.06,7.65l-1.1,1.59Z"/><path class="cls-1" d="M68.41,120.46a1.9,1.9,0,0,1,.26-1.2c.4-.22,1.13-.22,1.31-.84a23.12,23.12,0,0,0,1.29-3.87,24.78,24.78,0,0,0,.88-4.11,1.32,1.32,0,0,1,1.26.16,1.76,1.76,0,0,1,.91.88,7.59,7.59,0,0,1-.47,2.63l-.57,2-.75,2c.59,0,1.16-.38,4.43-1.47L79.09,112l1.19-2.64c.57-.63,1.54.47,1.86,1a2.7,2.7,0,0,1-.47,2.2,98.07,98.07,0,0,0-5.5,15.61,1.39,1.39,0,0,1-.09.47c-.22.22-.6.19-1.13,0a1.57,1.57,0,0,1-1-.85,8.61,8.61,0,0,1,.22-1.88l.76-3c.34-1.19.53-2,.62-2.35s.29-1.07-.59-.69L71.74,121c-.06.06-.37.78-1,2.17-.16.34-.57,1.35-1.22,3a.27.27,0,0,1-.38.13,1.67,1.67,0,0,1-.6-.35,1.58,1.58,0,0,1-.56-.75c-.07-.16.09-.44.09-.66a14.52,14.52,0,0,0,.53-3A3.08,3.08,0,0,1,68.41,120.46Z"/><path class="cls-1" d="M92.35,121.62a9.28,9.28,0,0,1-7.82,2.64C82.92,124,82,123,81.64,121.12a8.11,8.11,0,0,1,2.7-5.72c.22-.28.75-.34,1.6-.22a2.41,2.41,0,0,1,1.69.72c.54.73-.65,2.14-1.47,3.24l-1.79,2a.75.75,0,0,0-.06.88,3.43,3.43,0,0,0,2.29.75,9.61,9.61,0,0,0,3.7-1.13,21,21,0,0,0,2.08-1.32l.81-.59c.35-.29.57-.41.6-.44a.18.18,0,0,1,.25.25C93.1,120.77,92.53,121.46,92.35,121.62Zm-8.2-2.48s.09,0,.19-.13c1.16-.88,2.29-2.29,1.88-2.48-.22,0-.53.16-1,.6a4.13,4.13,0,0,0-1,1.69C84.12,119,84.12,119.17,84.15,119.14Z"/><path class="cls-1" d="M103,120.39c-.15.13-.47.41-.88.82a6,6,0,0,1-1,.85,21.61,21.61,0,0,1-2.39,1.57,19.14,19.14,0,0,1-3.2,1.44,3.25,3.25,0,0,1-2.54.1,2.49,2.49,0,0,1-1.35-1.73,5.07,5.07,0,0,1,.44-2.7,9.88,9.88,0,0,1,1.53-2.64,12.22,12.22,0,0,1,1.89-1.91q1-.81,1.41-.66a2.78,2.78,0,0,1,1.82.56c.72.54,1.17,1.23.88,1.57-.37,0-1.13-.19-1.41-.16A6,6,0,0,0,96,119.11a12.47,12.47,0,0,0-1.26,2.23,7,7,0,0,0-.75,2.29c.25.56,2.48-.38,6.69-2.86l1.44-.91c1.1-.72,1.51-1,1.6-.91S104,119.64,103,120.39Z"/><path class="cls-1" d="M109.24,122.78a19.71,19.71,0,0,1,0-2c0-.94.06-1.54,0-1.76a5.44,5.44,0,0,0-2.07,1.79,35.25,35.25,0,0,0-3.58,4.84c-.28.37-1,.12-1.63-.6a2,2,0,0,1,.06-1.54,8.34,8.34,0,0,1,.35-1.13l.75-2.2c.22-.72.82-2.48,1.85-5.24s1.79-4.65,2.23-5.65c.22-.47.6-.57,1.16-.22a2,2,0,0,1,.91,1.25,1.46,1.46,0,0,1,0,.54c-.32,1.28-.73,2.76-1.23,4.39a14.37,14.37,0,0,1-1.22,3.14,3.5,3.5,0,0,1,2.6-1.32c.79.13,1.54,1.17,2,2.2.6,1.57-.35,3-.5,4.12,0,.28.41.18,1.1-.29a29.92,29.92,0,0,0,2.41-2c.92-.81,1.39-1.22,1.39-1.25a1.48,1.48,0,0,0,.22-.16c.4-.34,1.22-1.13.65.41a8.81,8.81,0,0,1-1.53,2.2,11.75,11.75,0,0,1-2.08,2C111.22,125.42,109.9,124.79,109.24,122.78Z"/><path class="cls-1" d="M122.43,116a2.84,2.84,0,0,1,1.2,1.29,2.65,2.65,0,0,1,.19,2.22,41.52,41.52,0,0,0,5.87-.34c.44,1-4.74,2.2-6.47,2h-.1a12.3,12.3,0,0,1-2,2.6,8.2,8.2,0,0,1-2,1.67c-2.17.66-3.43-1.79-2.45-5.43l.91-2.42c.37-1,.78-1.48,1.19-1.48s.44.13.5,0a2.29,2.29,0,0,1,3.14-.12Zm-1.09,4.17a3.23,3.23,0,0,1-.82-2.23,8.77,8.77,0,0,0-.76,1l-.62.78a8.27,8.27,0,0,0-1.2,3.36c.57,0,1.39-.53,2.42-1.57A6,6,0,0,0,121.34,120.17Z"/><path class="cls-1" d="M141.65,115.53c.19-.16.54,0,1.07.37s.76.76.66,1.07a8.13,8.13,0,0,1-.41,1.48l-.66,1.88a22.5,22.5,0,0,0-.72,2.36c-.12.53.06.72.6.56a5.57,5.57,0,0,0,1.13-.53,59,59,0,0,0,5.34-3.33,1.55,1.55,0,0,1,.66-.41c.25.25.12.94-.13,1.29l-1.38,1.13-1.51,1.22c-.34.29-.81.63-1.41,1.07a8,8,0,0,1-3.8,1.82,2.57,2.57,0,0,1-1.85-1,3.6,3.6,0,0,1,0-2.77,6.75,6.75,0,0,1-1.26,1.17,2,2,0,0,1-1.89-.73,2.47,2.47,0,0,1-.69-2.48l.57-1.06a13.51,13.51,0,0,1,1-1.32,10.4,10.4,0,0,1,1.54-1.32,3.12,3.12,0,0,1,1.48-.79,3.67,3.67,0,0,1,1.38.57Zm-3.45,4.74a14.23,14.23,0,0,0,1.66-2l.51-1.1a3.77,3.77,0,0,0-1.45,1.07,11.92,11.92,0,0,0-1.47,1.91c-.41.63-.54,1-.44,1.1S137.73,120.74,138.2,120.27Z"/><path class="cls-1" d="M162.41,122.62a5.63,5.63,0,0,1-.06-2,6,6,0,0,0,.06-1.72c-.06-.13-.25,0-.56.34s-.72.91-1.32,1.73l-1.16,1.6-.85,1.26a5.83,5.83,0,0,1-1.32,1.75c-.22.13-.53,0-.91-.44a2.68,2.68,0,0,1-.72-1,4.21,4.21,0,0,1,.34-1.95l1.92-5.53c.31-.94,2.92,0,2.92,1a.91.91,0,0,1-.13.5c1-1.22,1.64-1.82,2.52-1.82a2,2,0,0,1,1.22,1.51c0,.25,0,.75-.09,1.47l-.13,1.51a26.11,26.11,0,0,1,2.11-2.1c.88-.82,1.6-1.41,2.13-1.82.35-.16.79,0,1.29.41a2,2,0,0,1,.88,1.25,16.07,16.07,0,0,1-.35,2.33c-.06.28-.19.78-.37,1.44s-.26,1-.26,1.07q.06.8,4.24-2.83a9.18,9.18,0,0,1,.88-.75l.19-.16c.41-.41,1.23-1.07.66.38a8.36,8.36,0,0,1-1.54,2.23,11,11,0,0,1-2.07,2,3.12,3.12,0,0,1-2.14.76,3.42,3.42,0,0,1-2.07-1.6,6.11,6.11,0,0,1,0-2.55c.07-.5-.15-.75-.22-.69-.66.73-2.73,3-3.26,3.39A1.9,1.9,0,0,1,162.41,122.62Z"/><path class="cls-1" d="M181.23,115.53c.19-.16.53,0,1.07.37s.75.76.65,1.07a8,8,0,0,1-.4,1.48l-.66,1.88a20.92,20.92,0,0,0-.73,2.36c-.12.53.07.72.6.56a5.57,5.57,0,0,0,1.13-.53,59,59,0,0,0,5.34-3.33,1.61,1.61,0,0,1,.66-.41c.25.25.12.94-.13,1.29l-1.38,1.13-1.5,1.22c-.35.29-.82.63-1.42,1.07a8,8,0,0,1-3.8,1.82,2.6,2.6,0,0,1-1.85-1,3.6,3.6,0,0,1,0-2.77,6.46,6.46,0,0,1-1.26,1.17,2,2,0,0,1-1.88-.73,2.47,2.47,0,0,1-.69-2.48l.56-1.06a13.89,13.89,0,0,1,1-1.32,9.9,9.9,0,0,1,1.54-1.32,3.11,3.11,0,0,1,1.47-.79,3.67,3.67,0,0,1,1.38.57Zm-3.46,4.74a15,15,0,0,0,1.67-2l.5-1.1a3.69,3.69,0,0,0-1.44,1.07A12,12,0,0,0,177,120.2c-.41.63-.53,1-.44,1.1S177.3,120.74,177.77,120.27Z"/><path class="cls-1" d="M189.87,124.07a1.45,1.45,0,0,1-1.48.75c-.53,0-.85-.16-.91-.41a.09.09,0,0,1,0-.12l.85-3.64a34.79,34.79,0,0,1,1.47-5.09c.1-.16.29-.94.51-1.1a2,2,0,0,1,1.44.34c.66.35,1,.63,1.1.91a11.47,11.47,0,0,1-.91,2.49,14.67,14.67,0,0,1,1.79-1.64,2.11,2.11,0,0,1,2.23.73c1.79,1.75-.16,4.61.22,5.71.09.25.85-.09,2.26-1a18.92,18.92,0,0,0,2.89-2.19c.12-.16.22-.1.28.18a1.7,1.7,0,0,1-.31,1.2c-1.1,1.19-4.24,4.3-6.22,3.11-.32.09-1.54-1.79-.75-6C194.17,117.57,191.12,121.4,189.87,124.07Z"/><path class="cls-1" d="M207.8,116a2.87,2.87,0,0,1,1.19,1.29,2.62,2.62,0,0,1,.19,2.22,41.52,41.52,0,0,0,5.87-.34c.44,1-4.74,2.2-6.47,2h-.09a12,12,0,0,1-2,2.6,8,8,0,0,1-2,1.67c-2.17.66-3.42-1.79-2.45-5.43l.91-2.42c.38-1,.79-1.48,1.2-1.48s.43.13.5,0a2.91,2.91,0,0,1,2-.66A3,3,0,0,1,207.8,116Zm-1.1,4.17a3.27,3.27,0,0,1-.82-2.23,7.83,7.83,0,0,0-.75,1l-.63.78a8.37,8.37,0,0,0-1.19,3.36c.56,0,1.38-.53,2.42-1.57A6,6,0,0,0,206.7,120.17Z"/></svg>